<svg xmlns="http://www.w3.org/2000/svg" viewBox="0 0 43.07 12"><defs><style>.cls-1{fill:#707070;}.cls-2{fill:#b7b7b7;}</style></defs><title>アセット 1</title><g id="レイヤー_2" data-name="レイヤー 2"><g id="レイヤー_1-2" data-name="レイヤー 1"><path class="cls-1" d="M5.92,5.21a10.38,10.38,0,0,1-.84,1.14,6.75,6.75,0,0,1-1,1,5.09,5.09,0,0,1-1.23.74,3.53,3.53,0,0,1-1.42.28,1.9,1.9,0,0,1-.54-.07,1.3,1.3,0,0,1-.44-.22,1.18,1.18,0,0,1-.3-.36A1.25,1.25,0,0,1,0,7.22a.91.91,0,0,1,.2-.56.68.68,0,0,1,.56-.25.46.46,0,0,1,.29.09.31.31,0,0,1,.11.27.47.47,0,0,1-.08.29.29.29,0,0,1-.25.12A.29.29,0,0,1,.62,7.1a.27.27,0,0,1-.1-.18.37.37,0,0,0-.18.21.74.74,0,0,0-.05.29.69.69,0,0,0,.32.63,1.26,1.26,0,0,0,.71.21.9.9,0,0,0,.44-.11.86.86,0,0,0,.31-.26,1.13,1.13,0,0,0,.19-.38,1.49,1.49,0,0,0,0-.9,4.09,4.09,0,0,0-.18-.49l-.18-.47a1.52,1.52,0,0,1-.08-.44,1.06,1.06,0,0,1,.11-.48,1.09,1.09,0,0,1,.29-.35,1.35,1.35,0,0,1,.43-.22,1.69,1.69,0,0,1,.5-.08,1.33,1.33,0,0,1,.78.21.66.66,0,0,1,.3.56A.49.49,0,0,1,4,5.3a1,1,0,0,1-.52.15,2,2,0,0,0,.12-.32,1.11,1.11,0,0,0,.06-.34.55.55,0,0,0-.15-.4.56.56,0,0,0-.43-.17.64.64,0,0,0-.52.21.8.8,0,0,0-.16.51,1.44,1.44,0,0,0,.09.51,5,5,0,0,0,.21.48c.07.16.13.32.19.49A1.69,1.69,0,0,1,3,7a1,1,0,0,1-.1.44,1.7,1.7,0,0,1-.27.39,1.82,1.82,0,0,1-.38.29,1.45,1.45,0,0,1-.42.16l0,0A3.44,3.44,0,0,0,3.05,7.9a5.73,5.73,0,0,0,1.1-.74,7.76,7.76,0,0,0,.94-1,9.21,9.21,0,0,0,.75-1Z"/><path class="cls-1" d="M8,2.78,7,4.18H8.59l-.07.14H6.91c-.32.52-.6,1-.86,1.35l-.63,1c-.17.28-.3.51-.39.7a1.16,1.16,0,0,0-.13.5.35.35,0,0,0,.15.32.74.74,0,0,0,.36.09,1.84,1.84,0,0,0,1-.33,7.29,7.29,0,0,0,1-.81,11.92,11.92,0,0,0,1-1c.31-.36.57-.69.79-1l.07,0c-.27.35-.57.71-.89,1.09a12.46,12.46,0,0,1-1,1,6.5,6.5,0,0,1-1,.79,1.93,1.93,0,0,1-1,.31,1,1,0,0,1-.64-.23.77.77,0,0,1-.27-.63,1.55,1.55,0,0,1,.15-.62A6.28,6.28,0,0,1,5,6.18l.57-.86c.21-.32.43-.65.65-1H5.56l.07-.14H6.3l.94-1.4Z"/><path class="cls-1" d="M10.52,4.18,9.41,5.77c-.31.43-.55.79-.74,1.08s-.32.52-.41.69a1,1,0,0,0-.12.4c0,.21.08.32.25.32A1.2,1.2,0,0,0,9,8.08a3.88,3.88,0,0,0,.66-.45,7.79,7.79,0,0,0,.7-.62c.23-.23.45-.46.65-.69a7.17,7.17,0,0,0,.54-.66,4,4,0,0,0,.34-.52l.1.06q-.15.24-.39.57a6.78,6.78,0,0,1-.56.69c-.21.24-.43.47-.66.7a6.83,6.83,0,0,1-.71.63,4.23,4.23,0,0,1-.7.44,1.49,1.49,0,0,1-.63.17.62.62,0,0,1-.48-.18.6.6,0,0,1-.15-.4,1.36,1.36,0,0,1,.11-.53,4.87,4.87,0,0,1,.37-.69c.16-.27.38-.6.65-1l1-1.43Zm.7-2.24a.38.38,0,0,1,.28.12.39.39,0,0,1,.1.28.39.39,0,0,1-.1.28.39.39,0,0,1-.56,0,.39.39,0,0,1-.1-.28.39.39,0,0,1,.1-.28A.38.38,0,0,1,11.22,1.94Z"/><path class="cls-1" d="M13.07,4.18,11.54,6.4l0,0c.11-.14.25-.29.42-.47s.36-.37.57-.56l.64-.55a7.17,7.17,0,0,1,.66-.5A.7.7,0,0,1,14,4.15a.42.42,0,0,1,.29-.07h.44a4.35,4.35,0,0,0-.39.5,1.14,1.14,0,0,0-.19.64.66.66,0,0,0,.13.44.47.47,0,0,0,.35.15A.87.87,0,0,0,15,5.76a1.74,1.74,0,0,0,.33-.18l.3-.23.25-.21.07,0-.27.26c-.11.09-.22.18-.34.26a2,2,0,0,1-.38.2,1.25,1.25,0,0,1-.42.08.83.83,0,0,1-.62-.24.85.85,0,0,1-.23-.65,1,1,0,0,1,.13-.52l0,0a11.09,11.09,0,0,0-1.08.88,17.46,17.46,0,0,0-1.24,1.29,4.4,4.4,0,0,0-.5.7,7.29,7.29,0,0,0-.45.88H9.71L11,6.25c.44-.68.88-1.37,1.34-2.07Z"/><path class="cls-2" d="M15.16,7.42a.44.44,0,0,1,0,.88.44.44,0,0,1-.32-.13.43.43,0,0,1,0-.62A.44.44,0,0,1,15.16,7.42Z"/><path class="cls-2" d="M20.47,2.78l-.95,1.4h1.59L21,4.32H19.43c-.32.52-.61,1-.86,1.35l-.64,1c-.17.28-.3.51-.39.7a1.32,1.32,0,0,0-.13.5.33.33,0,0,0,.16.32.69.69,0,0,0,.36.09,1.81,1.81,0,0,0,.95-.33,6.82,6.82,0,0,0,1-.81,13.52,13.52,0,0,0,1-1c.32-.36.58-.69.8-1l.07,0c-.27.35-.57.71-.9,1.09a9.9,9.9,0,0,1-1,1,6.08,6.08,0,0,1-1,.79,1.88,1.88,0,0,1-1,.31,1,1,0,0,1-.64-.23.77.77,0,0,1-.27-.63,1.43,1.43,0,0,1,.16-.62,5.1,5.1,0,0,1,.41-.74c.16-.26.35-.55.57-.86s.43-.65.65-1h-.65l.07-.14h.68l.93-1.4Z"/><path class="cls-2" d="M27.08,5.27a2.22,2.22,0,0,1-.64.51,1.5,1.5,0,0,1-.71.2,1.06,1.06,0,0,1-.58-.15,1.16,1.16,0,0,1-.37-.36h0a3.34,3.34,0,0,1-.45,1,4.65,4.65,0,0,1-.77.95,4.32,4.32,0,0,1-1,.72,2.36,2.36,0,0,1-1.11.29,1,1,0,0,1-.78-.3,1.2,1.2,0,0,1-.26-.8,1.77,1.77,0,0,1,.13-.62A3.66,3.66,0,0,1,20.9,6a4.89,4.89,0,0,1,.55-.69,4.5,4.5,0,0,1,.69-.62,3.57,3.57,0,0,1,.79-.43,2.19,2.19,0,0,1,.83-.16,1,1,0,0,1,.76.29,1.15,1.15,0,0,1,.3.74.78.78,0,0,0,.25.51.87.87,0,0,0,.65.24,1.32,1.32,0,0,0,.67-.18,2.64,2.64,0,0,0,.6-.47Zm-6,2.31a.9.9,0,0,0,.12.5.4.4,0,0,0,.36.18,1.3,1.3,0,0,0,.64-.18,2.82,2.82,0,0,0,.61-.45A4.39,4.39,0,0,0,23.33,7a5.55,5.55,0,0,0,.44-.74,5.47,5.47,0,0,0,.29-.75,2.46,2.46,0,0,0,.11-.67A.66.66,0,0,0,24,4.4a.43.43,0,0,0-.39-.18,1.09,1.09,0,0,0-.54.17,3.36,3.36,0,0,0-.58.42,4.72,4.72,0,0,0-.56.61c-.17.24-.33.48-.47.72a4.08,4.08,0,0,0-.33.75A2.28,2.28,0,0,0,21.05,7.58Z"/><path class="cls-2" d="M30.94,0c-.66,1-1.32,2.06-2,3.07s-1.34,2-2,3l0,0,.62-.7a5.52,5.52,0,0,1,.64-.64,3.26,3.26,0,0,1,.68-.46,1.62,1.62,0,0,1,.74-.18.74.74,0,0,1,.57.19.71.71,0,0,1,.17.47.85.85,0,0,1-.17.51,1.57,1.57,0,0,1-.43.38,2.27,2.27,0,0,1-.57.26,5.27,5.27,0,0,1-.56.15v0a.6.6,0,0,1,.25.27.86.86,0,0,1,.1.41,1,1,0,0,1,0,.3c0,.11-.08.22-.13.33a2.19,2.19,0,0,0-.12.33,1,1,0,0,0-.06.33c0,.15.07.23.19.23A1.76,1.76,0,0,0,29.64,8a4.91,4.91,0,0,0,1-.84c.26-.26.52-.54.78-.85s.55-.69.86-1.13l.1.07c-.15.22-.37.51-.66.89a13,13,0,0,1-1,1.15,4.78,4.78,0,0,1-1.07.85,1.89,1.89,0,0,1-.92.29.85.85,0,0,1-.56-.16.57.57,0,0,1-.2-.48,1,1,0,0,1,.09-.37A3,3,0,0,1,28.25,7c.06-.13.12-.26.18-.37a.8.8,0,0,0,.08-.29c0-.15-.07-.22-.2-.22a1,1,0,0,0-.28,0,1.07,1.07,0,0,1-.37.05c-.12,0-.18,0-.18-.11s.06-.1.18-.1H28a2.8,2.8,0,0,0,.67-.08,1.73,1.73,0,0,0,.53-.25,1.21,1.21,0,0,0,.36-.39,1.08,1.08,0,0,0,.12-.52.51.51,0,0,0-.12-.37.38.38,0,0,0-.28-.12,1,1,0,0,0-.53.19,3.75,3.75,0,0,0-.64.5,9.93,9.93,0,0,0-.7.73c-.24.28-.46.57-.68.87s-.43.6-.62.9-.36.58-.49.84h-.8l2.66-4.12q1.34-2,2.67-4.14Z"/><path class="cls-2" d="M33.7,4.18l-.87,1.2c-.29.38-.54.73-.77,1a9.37,9.37,0,0,0-.56.85,1.21,1.21,0,0,0-.22.58.31.31,0,0,0,.34.35,1.43,1.43,0,0,0,.81-.34,6.92,6.92,0,0,0,1-.89,15.29,15.29,0,0,0,1.05-1.29c.35-.48.69-1,1-1.51h.75a21.43,21.43,0,0,0-1.32,2q-.61,1-1.29,2a5.06,5.06,0,0,0,2.18-1,8.58,8.58,0,0,0,1.84-2l.09,0a8,8,0,0,1-2,2.11,5.15,5.15,0,0,1-2.23,1q-.47.64-1,1.29a7.49,7.49,0,0,1-1.06,1.18,5.38,5.38,0,0,1-1.28.85,3.62,3.62,0,0,1-1.57.33,2.57,2.57,0,0,1-.75-.1,2.21,2.21,0,0,1-.62-.28,1.35,1.35,0,0,1-.42-.44,1,1,0,0,1-.16-.54,1,1,0,0,1,.42-.91,1.71,1.71,0,0,1,1-.29v0a1,1,0,0,0-.64.39,1.32,1.32,0,0,0-.2.74,1.12,1.12,0,0,0,.12.53,1.1,1.1,0,0,0,.31.39,1.26,1.26,0,0,0,.44.24,1.44,1.44,0,0,0,.51.09,2.34,2.34,0,0,0,1.09-.27,5,5,0,0,0,1-.69,9.71,9.71,0,0,0,.93-1c.29-.37.57-.74.84-1.13s.5-.77.73-1.14.44-.71.63-1l0,0c-.13.16-.28.33-.47.54a6.6,6.6,0,0,1-.6.58,4.59,4.59,0,0,1-.71.47,1.6,1.6,0,0,1-.77.19.79.79,0,0,1-.55-.16.54.54,0,0,1-.16-.42,1.26,1.26,0,0,1,.12-.51,6.43,6.43,0,0,1,.4-.67c.19-.28.42-.61.71-1s.62-.88,1-1.46Z"/><path class="cls-2" d="M43.07,5.27a2.26,2.26,0,0,1-.65.51,1.5,1.5,0,0,1-.71.2,1.09,1.09,0,0,1-.58-.15,1.16,1.16,0,0,1-.37-.36h0a3.34,3.34,0,0,1-.45,1,4.65,4.65,0,0,1-.77.95,4.32,4.32,0,0,1-1,.72,2.35,2.35,0,0,1-1.1.29,1,1,0,0,1-.78-.3,1.16,1.16,0,0,1-.27-.8,2,2,0,0,1,.13-.62,3.66,3.66,0,0,1,.37-.7,5.73,5.73,0,0,1,.55-.69,4.5,4.5,0,0,1,.69-.62,3.57,3.57,0,0,1,.79-.43,2.19,2.19,0,0,1,.83-.16,1,1,0,0,1,.76.29,1.15,1.15,0,0,1,.3.74.75.75,0,0,0,.26.51.84.84,0,0,0,.64.24,1.38,1.38,0,0,0,.68-.18A2.6,2.6,0,0,0,43,5.21ZM37,7.58a.9.9,0,0,0,.12.5.4.4,0,0,0,.36.18,1.27,1.27,0,0,0,.64-.18,2.82,2.82,0,0,0,.61-.45A4.39,4.39,0,0,0,39.31,7a5.55,5.55,0,0,0,.44-.74A5.47,5.47,0,0,0,40,5.49a2.46,2.46,0,0,0,.11-.67A.66.66,0,0,0,40,4.4a.43.43,0,0,0-.39-.18,1.16,1.16,0,0,0-.54.17,3.36,3.36,0,0,0-.58.42,5.55,5.55,0,0,0-.56.61c-.17.24-.33.48-.47.72a4.08,4.08,0,0,0-.33.75A2.28,2.28,0,0,0,37,7.58Z"/></g></g></svg>